# xmcd CD database file
# Copyright (C) 1995-1998 Ti Kan
#
# Track frame offsets:
#	182
#	20505
#	33560
#	52330
#	67135
#	83342
#	99840
#	120380
#	136197
#	157935
#
# Disc length: 2356 seconds
#
# Revision: 1
# Processed by: cddbd v1.4PL0 Copyright (c) Steve Scherf et al.
# Submitted via: CDex 1.30Release
#
DISCID=7809320a
DTITLE=Gang Olsena - Go!
DYEAR=1992
DGENRE=Blues
TTITLE0=Chce miec Konia!
TTITLE1=Kolysanka o Nowym Jorku
TTITLE2=Bad Boys
TTITLE3=Blues, Ktory Mowi o TYm, ze...
TTITLE4=Get Down
TTITLE5=Olsen's Gang
TTITLE6=Martwe Neony Mojego Miasta
TTITLE7=Biale Myszy, Dzikie Koty
TTITLE8=Muddy Waters
TTITLE9=Unlucky Gay
EXTD=YEAR: 1992 ID3G:   0
EXTT0=
EXTT1=
EXTT2=
EXTT3=
EXTT4=
EXTT5=
EXTT6=
EXTT7=
EXTT8=
EXTT9=
PLAYORDER=
